# xmcd
#
# Track frame offsets: 
#        150
#        10871
#        30536
#        44094
#        60905
#        71485
#        89554
#        99592
#        120800
#        134503
#        151901
#
# Disc length: 2194 seconds
#
# Revision: 0
# Processed by: cddbd v1.5.2PL0 Copyright (c) Steve Scherf et al.
# Submitted via: ExactAudioCopy v1.0b3
#
DISCID=8708900b
DTITLE=Tracy Morrison - Dancing Through Medbury
DYEAR=2014
DGENRE=Folk
TTITLE0=Tall Dark Horse
TTITLE1=The Ballad of Ardith Clark
TTITLE2=Love Songs
TTITLE3=Polly Bemis
TTITLE4=Time
TTITLE5=Dancing Through Medbury
TTITLE6=Fade
TTITLE7=Fire
TTITLE8=Backroad
TTITLE9=Peg Leg Annie
TTITLE10=Brother
EXTD=
EXTT0=
EXTT1=
EXTT2=
EXTT3=
EXTT4=
EXTT5=
EXTT6=
EXTT7=
EXTT8=
EXTT9=
EXTT10=
PLAYORDER=
